<svg width="356" height="33" viewBox="0 0 356 33" fill="none" xmlns="http://www.w3.org/2000/svg">
<path d="M6.26531 25.6L5.90531 18.12L19.3053 4H26.5053L14.4253 17L10.8253 20.84L6.26531 25.6ZM0.46531 32V4H6.90531V32H0.46531ZM19.6253 32L9.66531 19.8L13.9053 15.2L27.1853 32H19.6253ZM31.4441 32V10.48H37.4041V16.56L36.5641 14.8C37.2041 13.28 38.2307 12.1333 39.6441 11.36C41.0574 10.56 42.7774 10.16 44.8041 10.16V15.92C44.5374 15.8933 44.2974 15.88 44.0841 15.88C43.8707 15.8533 43.6441 15.84 43.4041 15.84C41.6974 15.84 40.3107 16.3333 39.2441 17.32C38.2041 18.28 37.6841 19.7867 37.6841 21.84V32H31.4441ZM62.5081 32V27.8L62.1081 26.88V19.36C62.1081 18.0267 61.6948 16.9867 60.8681 16.24C60.0681 15.4933 58.8281 15.12 57.1481 15.12C56.0015 15.12 54.8681 15.3067 53.7481 15.68C52.6548 16.0267 51.7215 16.5067 50.9481 17.12L48.7081 12.76C49.8815 11.9333 51.2948 11.2933 52.9481 10.84C54.6015 10.3867 56.2815 10.16 57.9881 10.16C61.2681 10.16 63.8148 10.9333 65.6281 12.48C67.4415 14.0267 68.3481 16.44 68.3481 19.72V32H62.5081ZM55.9481 32.32C54.2681 32.32 52.8281 32.04 51.6281 31.48C50.4281 30.8933 49.5081 30.1067 48.8681 29.12C48.2281 28.1333 47.9081 27.0267 47.9081 25.8C47.9081 24.52 48.2148 23.4 48.8281 22.44C49.4681 21.48 50.4681 20.7333 51.8281 20.2C53.1881 19.64 54.9615 19.36 57.1481 19.36H62.8681V23H57.8281C56.3615 23 55.3481 23.24 54.7881 23.72C54.2548 24.2 53.9881 24.8 53.9881 25.52C53.9881 26.32 54.2948 26.96 54.9081 27.44C55.5481 27.8933 56.4148 28.12 57.5081 28.12C58.5481 28.12 59.4815 27.88 60.3081 27.4C61.1348 26.8933 61.7348 26.16 62.1081 25.2L63.0681 28.08C62.6148 29.4667 61.7881 30.52 60.5881 31.24C59.3881 31.96 57.8415 32.32 55.9481 32.32ZM83.4356 32.32C81.5956 32.32 79.8223 32.1067 78.1156 31.68C76.4356 31.2267 75.1023 30.6667 74.1156 30L76.1956 25.52C77.1823 26.1333 78.3423 26.64 79.6756 27.04C81.0356 27.4133 82.369 27.6 83.6756 27.6C85.1156 27.6 86.129 27.4267 86.7156 27.08C87.329 26.7333 87.6356 26.2533 87.6356 25.64C87.6356 25.1333 87.3956 24.76 86.9156 24.52C86.4623 24.2533 85.849 24.0533 85.0756 23.92C84.3023 23.7867 83.449 23.6533 82.5156 23.52C81.609 23.3867 80.689 23.2133 79.7556 23C78.8223 22.76 77.969 22.4133 77.1956 21.96C76.4223 21.5067 75.7956 20.8933 75.3156 20.12C74.8623 19.3467 74.6356 18.3467 74.6356 17.12C74.6356 15.76 75.0223 14.56 75.7956 13.52C76.5956 12.48 77.7423 11.6667 79.2356 11.08C80.729 10.4667 82.5156 10.16 84.5956 10.16C86.0623 10.16 87.5556 10.32 89.0756 10.64C90.5956 10.96 91.8623 11.4267 92.8756 12.04L90.7956 16.48C89.7556 15.8667 88.7023 15.4533 87.6356 15.24C86.5956 15 85.5823 14.88 84.5956 14.88C83.209 14.88 82.1956 15.0667 81.5556 15.44C80.9156 15.8133 80.5956 16.2933 80.5956 16.88C80.5956 17.4133 80.8223 17.8133 81.2756 18.08C81.7556 18.3467 82.3823 18.56 83.1556 18.72C83.929 18.88 84.769 19.0267 85.6756 19.16C86.609 19.2667 87.5423 19.44 88.4756 19.68C89.409 19.92 90.249 20.2667 90.9956 20.72C91.769 21.1467 92.3956 21.7467 92.8756 22.52C93.3556 23.2667 93.5956 24.2533 93.5956 25.48C93.5956 26.8133 93.1956 28 92.3956 29.04C91.5956 30.0533 90.4356 30.8533 88.9156 31.44C87.4223 32.0267 85.5956 32.32 83.4356 32.32ZM99.6456 32V10.48H105.886V32H99.6456ZM102.766 7.48C101.619 7.48 100.686 7.14667 99.9656 6.48C99.2456 5.81333 98.8856 4.98666 98.8856 4C98.8856 3.01333 99.2456 2.18667 99.9656 1.52C100.686 0.853331 101.619 0.519998 102.766 0.519998C103.912 0.519998 104.846 0.839998 105.566 1.48C106.286 2.09333 106.646 2.89333 106.646 3.88C106.646 4.92 106.286 5.78667 105.566 6.48C104.872 7.14667 103.939 7.48 102.766 7.48ZM119.717 32L110.677 10.48H117.117L124.637 29H121.437L129.237 10.48H135.237L126.157 32H119.717ZM149.637 32.32C147.344 32.32 145.304 31.84 143.517 30.88C141.757 29.92 140.357 28.6133 139.317 26.96C138.304 25.28 137.797 23.3733 137.797 21.24C137.797 19.08 138.304 17.1733 139.317 15.52C140.357 13.84 141.757 12.5333 143.517 11.6C145.304 10.64 147.344 10.16 149.637 10.16C151.904 10.16 153.931 10.64 155.717 11.6C157.504 12.5333 158.904 13.8267 159.917 15.48C160.931 17.1333 161.437 19.0533 161.437 21.24C161.437 23.3733 160.931 25.28 159.917 26.96C158.904 28.6133 157.504 29.92 155.717 30.88C153.931 31.84 151.904 32.32 149.637 32.32ZM149.637 27.2C150.677 27.2 151.611 26.96 152.437 26.48C153.264 26 153.917 25.32 154.397 24.44C154.877 23.5333 155.117 22.4667 155.117 21.24C155.117 19.9867 154.877 18.92 154.397 18.04C153.917 17.16 153.264 16.48 152.437 16C151.611 15.52 150.677 15.28 149.637 15.28C148.597 15.28 147.664 15.52 146.837 16C146.011 16.48 145.344 17.16 144.837 18.04C144.357 18.92 144.117 19.9867 144.117 21.24C144.117 22.4667 144.357 23.5333 144.837 24.44C145.344 25.32 146.011 26 146.837 26.48C147.664 26.96 148.597 27.2 149.637 27.2ZM205.35 32V9.28H196.39V4H220.79V9.28H211.83V32H205.35ZM234.089 32.32C231.795 32.32 229.755 31.84 227.969 30.88C226.209 29.92 224.809 28.6133 223.769 26.96C222.755 25.28 222.249 23.3733 222.249 21.24C222.249 19.08 222.755 17.1733 223.769 15.52C224.809 13.84 226.209 12.5333 227.969 11.6C229.755 10.64 231.795 10.16 234.089 10.16C236.355 10.16 238.382 10.64 240.169 11.6C241.955 12.5333 243.355 13.8267 244.369 15.48C245.382 17.1333 245.889 19.0533 245.889 21.24C245.889 23.3733 245.382 25.28 244.369 26.96C243.355 28.6133 241.955 29.92 240.169 30.88C238.382 31.84 236.355 32.32 234.089 32.32ZM234.089 27.2C235.129 27.2 236.062 26.96 236.889 26.48C237.715 26 238.369 25.32 238.849 24.44C239.329 23.5333 239.569 22.4667 239.569 21.24C239.569 19.9867 239.329 18.92 238.849 18.04C238.369 17.16 237.715 16.48 236.889 16C236.062 15.52 235.129 15.28 234.089 15.28C233.049 15.28 232.115 15.52 231.289 16C230.462 16.48 229.795 17.16 229.289 18.04C228.809 18.92 228.569 19.9867 228.569 21.24C228.569 22.4667 228.809 23.5333 229.289 24.44C229.795 25.32 230.462 26 231.289 26.48C232.115 26.96 233.049 27.2 234.089 27.2ZM262.66 32.32C260.34 32.32 258.273 31.8533 256.46 30.92C254.646 29.96 253.22 28.64 252.18 26.96C251.166 25.28 250.66 23.3733 250.66 21.24C250.66 19.08 251.166 17.1733 252.18 15.52C253.22 13.84 254.646 12.5333 256.46 11.6C258.273 10.64 260.34 10.16 262.66 10.16C264.926 10.16 266.9 10.64 268.58 11.6C270.26 12.5333 271.5 13.88 272.3 15.64L267.46 18.24C266.9 17.2267 266.193 16.48 265.34 16C264.513 15.52 263.606 15.28 262.62 15.28C261.553 15.28 260.593 15.52 259.74 16C258.886 16.48 258.206 17.16 257.7 18.04C257.22 18.92 256.98 19.9867 256.98 21.24C256.98 22.4933 257.22 23.56 257.7 24.44C258.206 25.32 258.886 26 259.74 26.48C260.593 26.96 261.553 27.2 262.62 27.2C263.606 27.2 264.513 26.9733 265.34 26.52C266.193 26.04 266.9 25.28 267.46 24.24L272.3 26.88C271.5 28.6133 270.26 29.96 268.58 30.92C266.9 31.8533 264.926 32.32 262.66 32.32ZM291.055 10.16C292.762 10.16 294.282 10.5067 295.615 11.2C296.975 11.8667 298.042 12.9067 298.815 14.32C299.589 15.7067 299.975 17.4933 299.975 19.68V32H293.735V20.64C293.735 18.9067 293.349 17.6267 292.575 16.8C291.829 15.9733 290.762 15.56 289.375 15.56C288.389 15.56 287.495 15.7733 286.695 16.2C285.922 16.6 285.309 17.2267 284.855 18.08C284.429 18.9333 284.215 20.0267 284.215 21.36V32H277.975V2.32H284.215V16.44L282.815 14.64C283.589 13.2 284.695 12.0933 286.135 11.32C287.575 10.5467 289.215 10.16 291.055 10.16ZM312.992 27.6L313.152 20L323.192 10.48H330.632L320.992 20.28L317.752 22.92L312.992 27.6ZM307.832 32V2.32H314.072V32H307.832ZM323.872 32L316.592 22.96L320.512 18.12L331.432 32H323.872ZM349.247 32V27.8L348.847 26.88V19.36C348.847 18.0267 348.434 16.9867 347.607 16.24C346.807 15.4933 345.567 15.12 343.887 15.12C342.741 15.12 341.607 15.3067 340.487 15.68C339.394 16.0267 338.461 16.5067 337.687 17.12L335.447 12.76C336.621 11.9333 338.034 11.2933 339.687 10.84C341.341 10.3867 343.021 10.16 344.727 10.16C348.007 10.16 350.554 10.9333 352.367 12.48C354.181 14.0267 355.087 16.44 355.087 19.72V32H349.247ZM342.687 32.32C341.007 32.32 339.567 32.04 338.367 31.48C337.167 30.8933 336.247 30.1067 335.607 29.12C334.967 28.1333 334.647 27.0267 334.647 25.8C334.647 24.52 334.954 23.4 335.567 22.44C336.207 21.48 337.207 20.7333 338.567 20.2C339.927 19.64 341.701 19.36 343.887 19.36H349.607V23H344.567C343.101 23 342.087 23.24 341.527 23.72C340.994 24.2 340.727 24.8 340.727 25.52C340.727 26.32 341.034 26.96 341.647 27.44C342.287 27.8933 343.154 28.12 344.247 28.12C345.287 28.12 346.221 27.88 347.047 27.4C347.874 26.8933 348.474 26.16 348.847 25.2L349.807 28.08C349.354 29.4667 348.527 30.52 347.327 31.24C346.127 31.96 344.581 32.32 342.687 32.32Z" fill="#E3E3E3"/>
<path d="M177.048 32.48C174.995 32.48 173.168 32.1467 171.568 31.48C169.968 30.8133 168.701 29.9067 167.768 28.76C166.835 27.6133 166.368 26.2933 166.368 24.8C166.368 23.4133 166.675 22.1733 167.288 21.08C167.901 19.96 168.875 18.92 170.208 17.96C171.541 16.9733 173.235 16.0133 175.288 15.08C176.781 14.3867 177.955 13.7733 178.808 13.24C179.661 12.7067 180.261 12.2 180.608 11.72C180.955 11.2133 181.128 10.7067 181.128 10.2C181.128 9.50667 180.888 8.94667 180.408 8.52C179.955 8.09333 179.275 7.88 178.368 7.88C177.408 7.88 176.661 8.12 176.128 8.6C175.595 9.08 175.328 9.69333 175.328 10.44C175.328 10.84 175.408 11.24 175.568 11.64C175.728 12.0133 176.035 12.4533 176.488 12.96C176.941 13.44 177.581 14.0667 178.408 14.84L193.168 28.52L189.768 32.48L173.488 17.36C172.555 16.5067 171.808 15.7067 171.248 14.96C170.688 14.2133 170.275 13.48 170.008 12.76C169.768 12.04 169.648 11.2933 169.648 10.52C169.648 9.16 170.008 7.96 170.728 6.92C171.448 5.88 172.461 5.08 173.768 4.52C175.075 3.93333 176.608 3.64 178.368 3.64C179.995 3.64 181.395 3.90667 182.568 4.44C183.768 4.94667 184.701 5.68 185.368 6.64C186.061 7.6 186.408 8.74666 186.408 10.08C186.408 11.2533 186.115 12.3333 185.528 13.32C184.941 14.28 184.021 15.1867 182.768 16.04C181.541 16.8933 179.928 17.76 177.928 18.64C176.568 19.2533 175.488 19.8533 174.688 20.44C173.915 21 173.355 21.5733 173.008 22.16C172.661 22.7467 172.488 23.4 172.488 24.12C172.488 24.7867 172.688 25.3867 173.088 25.92C173.515 26.4533 174.101 26.8667 174.848 27.16C175.595 27.4533 176.475 27.6 177.488 27.6C179.115 27.6 180.608 27.2267 181.968 26.48C183.328 25.7067 184.475 24.5733 185.408 23.08C186.368 21.56 187.048 19.72 187.448 17.56L192.448 19.12C191.888 21.84 190.888 24.2 189.448 26.2C188.008 28.2 186.235 29.7467 184.128 30.84C182.021 31.9333 179.661 32.48 177.048 32.48Z" fill="#BA936B"/>
</svg>
