<svg width="15" height="19" viewBox="0 0 15 19" fill="none" xmlns="http://www.w3.org/2000/svg">
<path d="M7.5 9.11044C8.01562 9.11044 8.45719 8.93292 8.82469 8.57788C9.19156 8.22344 9.375 7.79714 9.375 7.299C9.375 6.80085 9.19156 6.37425 8.82469 6.01921C8.45719 5.66477 8.01562 5.48755 7.5 5.48755C6.98438 5.48755 6.54313 5.66477 6.17625 6.01921C5.80875 6.37425 5.625 6.80085 5.625 7.299C5.625 7.79714 5.80875 8.22344 6.17625 8.57788C6.54313 8.93292 6.98438 9.11044 7.5 9.11044ZM7.5 15.7675C9.40625 14.0768 10.8203 12.5407 11.7422 11.1592C12.6641 9.77826 13.125 8.55191 13.125 7.48014C13.125 5.83475 12.5819 4.48733 11.4956 3.4379C10.41 2.38908 9.07812 1.86467 7.5 1.86467C5.92188 1.86467 4.58969 2.38908 3.50344 3.4379C2.41781 4.48733 1.875 5.83475 1.875 7.48014C1.875 8.55191 2.33594 9.77826 3.25781 11.1592C4.17969 12.5407 5.59375 14.0768 7.5 15.7675ZM7.5 18.1677C4.98438 16.0996 3.10562 14.1786 1.86375 12.4045C0.62125 10.6311 0 8.98968 0 7.48014C0 5.21584 0.754063 3.41194 2.26219 2.06845C3.76969 0.724966 5.51562 0.0532227 7.5 0.0532227C9.48438 0.0532227 11.2303 0.724966 12.7378 2.06845C14.2459 3.41194 15 5.21584 15 7.48014C15 8.98968 14.3791 10.6311 13.1372 12.4045C11.8947 14.1786 10.0156 16.0996 7.5 18.1677Z" fill="#E3E3E3"/>
</svg>
