<svg width="93" height="77" viewBox="0 0 93 77" fill="none" xmlns="http://www.w3.org/2000/svg">
<path d="M8.45455 67.6364C6.12955 67.6364 4.13991 66.8092 2.48564 65.155C0.828546 63.4979 0 61.5068 0 59.1818V8.45455C0 6.12955 0.828546 4.13991 2.48564 2.48564C4.13991 0.828545 6.12955 0 8.45455 0H76.0909C78.4159 0 80.407 0.828545 82.064 2.48564C83.7183 4.13991 84.5454 6.12955 84.5454 8.45455V33.8182H8.45455V59.1818H50.7273V67.6364H8.45455ZM8.45455 16.9091H76.0909V8.45455H8.45455V16.9091ZM71.8636 76.0909V63.4091H59.1818V54.9545H71.8636V42.2727H80.3182V54.9545H93V63.4091H80.3182V76.0909H71.8636Z" fill="#BA936B"/>
</svg>
