<svg width="79" height="83" viewBox="0 0 79 83" fill="none" xmlns="http://www.w3.org/2000/svg">
<path d="M70.5029 82.2494V24.1244C70.5029 21.9931 69.7447 20.1693 68.2282 18.6529C66.7093 17.1339 64.8841 16.3744 62.7529 16.3744H58.8779V21.4119C58.8779 22.1869 58.6195 22.8327 58.1029 23.3494C57.5862 23.8661 56.9404 24.1244 56.1654 24.1244H34.4654C33.5612 24.1244 32.8353 23.64 32.2877 22.6713C31.7374 21.7025 31.6883 20.7661 32.1404 19.8619L39.5029 3.97439C39.955 3.00564 40.6176 2.24614 41.4908 1.69589C42.3614 1.14822 43.3779 0.87439 44.5404 0.87439H53.4529C55.0029 0.87439 56.2946 1.45564 57.3279 2.61814C58.3612 3.78064 58.8779 5.13689 58.8779 6.68689V8.62439H62.7529C67.0154 8.62439 70.6643 10.1421 73.6998 13.1775C76.7352 16.2129 78.2529 19.8619 78.2529 24.1244V82.2494H70.5029ZM42.2154 16.3744H51.1279V8.62439H45.7029L42.2154 16.3744ZM12.3779 82.2494C9.08417 82.2494 6.32259 81.1347 4.09318 78.9053C1.86635 76.6784 0.75293 73.9181 0.75293 70.6244V60.9369C0.75293 58.8056 1.46335 56.8191 2.88418 54.9771C4.30501 53.1378 6.17793 52.0244 8.50292 51.6369V43.4994C8.50292 41.3681 9.26242 39.543 10.7814 38.024C12.2978 36.5076 14.1217 35.7494 16.2529 35.7494H47.2529C49.3841 35.7494 51.2093 36.5076 52.7283 38.024C54.2447 39.543 55.0029 41.3681 55.0029 43.4994V51.6369C57.3279 52.0244 59.2008 53.09 60.6216 54.8338C62.0425 56.5775 62.7529 58.6119 62.7529 60.9369V70.6244C62.7529 73.9181 61.6395 76.6784 59.4126 78.9053C57.1832 81.1347 54.4216 82.2494 51.1279 82.2494H12.3779ZM16.2529 43.4994V53.1869C17.4154 54.1556 18.3519 55.3013 19.0623 56.624C19.7727 57.9493 20.1279 59.3869 20.1279 60.9369V62.8744H43.3779V60.9369C43.3779 59.3869 43.7331 57.9493 44.4435 56.624C45.1539 55.3013 46.0904 54.1556 47.2529 53.1869V43.4994H16.2529ZM12.3779 74.4994H51.1279C52.2904 74.4994 53.2268 74.0964 53.9373 73.2904C54.6477 72.4818 55.0029 71.5931 55.0029 70.6244V60.9369C55.0029 60.3556 54.8259 59.8868 54.472 59.5303C54.1155 59.1763 53.6466 58.9994 53.0654 58.9994C52.4841 58.9994 52.0153 59.1763 51.6588 59.5303C51.3048 59.8868 51.1279 60.3556 51.1279 60.9369V70.6244H12.3779V60.9369C12.3779 60.3556 12.201 59.8868 11.847 59.5303C11.4905 59.1763 11.0217 58.9994 10.4404 58.9994C9.85917 58.9994 9.39159 59.1763 9.03767 59.5303C8.68117 59.8868 8.50292 60.3556 8.50292 60.9369V70.6244C8.50292 71.5931 8.85813 72.4818 9.56855 73.2904C10.279 74.0964 11.2154 74.4994 12.3779 74.4994Z" fill="#BA936B"/>
</svg>
