<svg width="79" height="79" viewBox="0 0 79 79" fill="none" xmlns="http://www.w3.org/2000/svg">
<path d="M29.8154 45.3131C26.0696 45.3131 22.8727 43.9891 20.2248 41.3412C17.5769 38.6933 16.2529 35.4964 16.2529 31.7506C16.2529 28.0048 17.5769 24.8079 20.2248 22.16C22.8727 19.5121 26.0696 18.1881 29.8154 18.1881C33.5612 18.1881 36.7581 19.5121 39.406 22.16C42.0539 24.8079 43.3779 28.0048 43.3779 31.7506C43.3779 35.4964 42.0539 38.6933 39.406 41.3412C36.7581 43.9891 33.5612 45.3131 29.8154 45.3131ZM29.8154 37.5631C31.43 37.5631 32.8017 36.9973 33.9307 35.8658C35.0622 34.7369 35.6279 33.3652 35.6279 31.7506C35.6279 30.136 35.0622 28.7643 33.9307 27.6353C32.8017 26.5038 31.43 25.9381 29.8154 25.9381C28.2008 25.9381 26.8291 26.5038 25.7002 27.6353C24.5687 28.7643 24.0029 30.136 24.0029 31.7506C24.0029 33.3652 24.5687 34.7369 25.7002 35.8658C26.8291 36.9973 28.2008 37.5631 29.8154 37.5631ZM56.9404 49.1881C54.2279 49.1881 51.9352 48.2516 50.0623 46.3787C48.1894 44.5058 47.2529 42.2131 47.2529 39.5006C47.2529 36.7881 48.1894 34.4954 50.0623 32.6225C51.9352 30.7495 54.2279 29.8131 56.9404 29.8131C59.6529 29.8131 61.9456 30.7495 63.8185 32.6225C65.6914 34.4954 66.6279 36.7881 66.6279 39.5006C66.6279 42.2131 65.6914 44.5058 63.8185 46.3787C61.9456 48.2516 59.6529 49.1881 56.9404 49.1881ZM32.9154 69.7256C35.8217 63.8485 39.6966 59.9244 44.5404 57.9533C49.3841 55.9848 53.5175 55.0006 56.9404 55.0006C58.4258 55.0006 59.8789 55.1297 61.2998 55.3881C62.7206 55.6464 64.1091 55.9693 65.4654 56.3568C67.0154 53.9027 68.2425 51.2547 69.1466 48.4131C70.0508 45.5714 70.5029 42.6006 70.5029 39.5006C70.5029 30.8464 67.4997 23.5162 61.4935 17.51C55.4873 11.5037 48.1571 8.5006 39.5029 8.5006C30.8487 8.5006 23.5185 11.5037 17.5123 17.51C11.506 23.5162 8.50292 30.8464 8.50292 39.5006C8.50292 42.4068 8.87363 45.1839 9.61505 47.8318C10.359 50.4797 11.4738 52.9339 12.9592 55.1943C15.4779 53.9026 18.1426 52.9016 20.9533 52.1912C23.7614 51.4808 26.7154 51.1256 29.8154 51.1256C31.8821 51.1256 33.8687 51.3025 35.7752 51.6564C37.6791 52.0129 39.5675 52.4818 41.4404 53.0631C39.955 53.8381 38.5509 54.7422 37.2283 55.7756C35.903 56.8089 34.6592 57.9068 33.4967 59.0693C32.7217 58.9401 32.0603 58.8756 31.5127 58.8756H29.8154C27.6842 58.8756 25.6175 59.1016 23.6154 59.5537C21.6133 60.0058 19.6758 60.6839 17.8029 61.5881C19.8696 63.6547 22.1791 65.383 24.7314 66.7728C27.2812 68.1601 30.0092 69.1443 32.9154 69.7256ZM39.5029 78.2505C34.1425 78.2505 29.105 77.2327 24.3904 75.1971C19.6758 73.164 15.5748 70.4037 12.0873 66.9162C8.5998 63.4287 5.83951 59.3276 3.80643 54.6131C1.77076 49.8985 0.75293 44.861 0.75293 39.5006C0.75293 34.1402 1.77076 29.1027 3.80643 24.3881C5.83951 19.6735 8.5998 15.5725 12.0873 12.085C15.5748 8.59748 19.6758 5.8359 24.3904 3.80023C29.105 1.76715 34.1425 0.75061 39.5029 0.75061C44.8633 0.75061 49.9008 1.76715 54.6154 3.80023C59.33 5.8359 63.431 8.59748 66.9185 12.085C70.406 15.5725 73.1663 19.6735 75.1994 24.3881C77.235 29.1027 78.2529 34.1402 78.2529 39.5006C78.2529 44.861 77.235 49.8985 75.1994 54.6131C73.1663 59.3276 70.406 63.4287 66.9185 66.9162C63.431 70.4037 59.33 73.164 54.6154 75.1971C49.9008 77.2327 44.8633 78.2505 39.5029 78.2505Z" fill="#BA936B"/>
</svg>
