<svg width="79" height="75" viewBox="0 0 79 75" fill="none" xmlns="http://www.w3.org/2000/svg">
<path d="M8.50292 58.8757V66.6257H70.5029V58.8757H8.50292ZM8.50292 16.2506H17.0279C16.705 15.6694 16.4945 15.0558 16.3963 14.41C16.3007 13.7642 16.2529 13.086 16.2529 12.3756C16.2529 9.14645 17.3831 6.40166 19.6435 4.14124C21.904 1.88082 24.6487 0.75061 27.8779 0.75061C29.8154 0.75061 31.6069 1.25049 33.2525 2.25024C34.9007 3.25257 36.3383 4.49645 37.5654 5.98186L39.5029 8.50062L41.4404 5.98186C42.6029 4.43186 44.0237 3.17249 45.7029 2.20374C47.3821 1.23499 49.1904 0.75061 51.1279 0.75061C54.3571 0.75061 57.1018 1.88082 59.3623 4.14124C61.6227 6.40166 62.7529 9.14645 62.7529 12.3756C62.7529 13.086 62.7038 13.7642 62.6056 14.41C62.51 15.0558 62.3008 15.6694 61.9779 16.2506H70.5029C72.6341 16.2506 74.4592 17.0101 75.9782 18.5291C77.4947 20.0455 78.2529 21.8694 78.2529 24.0006V66.6257C78.2529 68.7569 77.4947 70.582 75.9782 72.101C74.4592 73.6175 72.6341 74.3757 70.5029 74.3757H8.50292C6.37168 74.3757 4.54784 73.6175 3.03143 72.101C1.51243 70.582 0.75293 68.7569 0.75293 66.6257V24.0006C0.75293 21.8694 1.51243 20.0455 3.03143 18.5291C4.54784 17.0101 6.37168 16.2506 8.50292 16.2506ZM8.50292 47.2506H70.5029V24.0006H50.7404L58.8779 35.0444L52.6779 39.5006L39.5029 21.6756L26.3279 39.5006L20.1279 35.0444L28.0717 24.0006H8.50292V47.2506ZM27.8779 16.2506C28.9758 16.2506 29.8968 15.8799 30.6408 15.1385C31.3822 14.3945 31.7529 13.4735 31.7529 12.3756C31.7529 11.2777 31.3822 10.3567 30.6408 9.61274C29.8968 8.87133 28.9758 8.50062 27.8779 8.50062C26.78 8.50062 25.8603 8.87133 25.1189 9.61274C24.3749 10.3567 24.0029 11.2777 24.0029 12.3756C24.0029 13.4735 24.3749 14.3945 25.1189 15.1385C25.8603 15.8799 26.78 16.2506 27.8779 16.2506ZM51.1279 16.2506C52.2258 16.2506 53.1468 15.8799 53.8908 15.1385C54.6322 14.3945 55.0029 13.4735 55.0029 12.3756C55.0029 11.2777 54.6322 10.3567 53.8908 9.61274C53.1468 8.87133 52.2258 8.50062 51.1279 8.50062C50.03 8.50062 49.1103 8.87133 48.3689 9.61274C47.6249 10.3567 47.2529 11.2777 47.2529 12.3756C47.2529 13.4735 47.6249 14.3945 48.3689 15.1385C49.1103 15.8799 50.03 16.2506 51.1279 16.2506Z" fill="#BA936B"/>
</svg>
