<svg width="100" height="100" viewBox="0 0 100 100" fill="none" xmlns="http://www.w3.org/2000/svg">
<circle cx="50" cy="50" r="48.5" stroke="white" stroke-width="3"/>
<path d="M47.5 75C47.5 76.3807 48.6193 77.5 50 77.5C51.3807 77.5 52.5 76.3807 52.5 75L47.5 75ZM51.7678 22.2322C50.7915 21.2559 49.2085 21.2559 48.2322 22.2322L32.3223 38.1421C31.346 39.1184 31.346 40.7014 32.3223 41.6777C33.2986 42.654 34.8816 42.654 35.8579 41.6777L50 27.5355L64.1421 41.6777C65.1184 42.654 66.7014 42.654 67.6777 41.6777C68.654 40.7014 68.654 39.1184 67.6777 38.1421L51.7678 22.2322ZM52.5 75L52.5 24L47.5 24L47.5 75L52.5 75Z" fill="white"/>
</svg>
