<svg width="181" height="25" viewBox="0 0 181 25" fill="none" xmlns="http://www.w3.org/2000/svg">
<mask id="path-1-outside-1_31_27" maskUnits="userSpaceOnUse" x="28" y="5" width="153" height="17" fill="black">
<rect fill="white" x="28" y="5" width="153" height="17"/>
<path d="M33.0576 20C32.184 20 31.456 19.7498 30.8736 19.2493C30.2912 18.7488 30 18.1141 30 17.3451V9.65493C30 8.88592 30.2912 8.25117 30.8736 7.7507C31.456 7.25023 32.184 7 33.0576 7H35.9071C36.7807 7 37.5087 7.25023 38.0911 7.7507C38.6735 8.25117 38.9647 8.88592 38.9647 9.65493V17.3451C38.9647 18.1141 38.6735 18.7488 38.0911 19.2493C37.5087 19.7498 36.7807 20 35.9071 20H33.0576ZM35.5951 17.4366C35.8586 17.4366 35.9903 17.3207 35.9903 17.0887V9.91127C35.9903 9.67934 35.8586 9.56338 35.5951 9.56338H33.3696C33.2586 9.56338 33.1685 9.5939 33.0992 9.65493C33.0298 9.71596 32.9952 9.80141 32.9952 9.91127V17.0887C32.9952 17.1986 33.0298 17.284 33.0992 17.3451C33.1685 17.4061 33.2586 17.4366 33.3696 17.4366H35.5951Z"/>
<path d="M44.5394 7.09155V17.3451H50.3841V19.9085H41.461V7.09155H44.5394Z"/>
<path d="M57.1299 7.09155H60.3538L56.1107 15.4958L56.0691 19.9085H52.9907L52.9491 15.4958L48.706 7.09155H51.9299L54.4259 12.0535H54.6339L57.1299 7.09155Z"/>
<path d="M68.8931 16.6493L72.7619 7.09155H76.0898V19.9085H73.2195V13.4268H73.0531L70.4531 19.9085H67.1459L64.546 13.4268H64.3796V19.9085H61.5092V7.09155H64.8372L68.7059 16.6493H68.8931Z"/>
<path d="M78.7949 19.9085V7.09155H84.7229C85.5965 7.09155 86.3245 7.34178 86.9069 7.84225C87.5031 8.34272 87.8013 8.97747 87.8013 9.74648V12.1268C87.8013 12.8958 87.5031 13.5305 86.9069 14.031C86.3245 14.5315 85.5965 14.7817 84.7229 14.7817H81.8733V19.9085H78.7949ZM84.4941 12.2183C84.605 12.2183 84.6951 12.1878 84.7645 12.1268C84.8477 12.0657 84.8893 11.9803 84.8893 11.8704V10.0028C84.8893 9.89296 84.8477 9.80751 84.7645 9.74648C84.6951 9.68545 84.605 9.65493 84.4941 9.65493H81.7693V12.2183H84.4941Z"/>
<path d="M92.8623 20C91.9748 20 91.2399 19.7498 90.6575 19.2493C90.0751 18.7488 89.7839 18.1141 89.7839 17.3451V7.09155H92.7791V17.0887C92.7791 17.3207 92.9039 17.4366 93.1534 17.4366H95.3582C95.483 17.4366 95.5801 17.4061 95.6494 17.3451C95.7326 17.284 95.7742 17.1986 95.7742 17.0887V7.09155H98.7694V17.3451C98.7694 18.1141 98.4782 18.7488 97.8958 19.2493C97.3273 19.7498 96.6062 20 95.7326 20H92.8623Z"/>
<path d="M104.126 20C103.557 20 103.037 19.884 102.566 19.6521C102.094 19.4202 101.72 19.1028 101.443 18.7C101.179 18.2972 101.047 17.8455 101.047 17.3451V16.3746H104.022V17.0704C104.022 17.1803 104.056 17.2718 104.126 17.3451C104.209 17.4061 104.306 17.4366 104.417 17.4366H106.601C106.948 17.4366 107.121 17.284 107.121 16.9789V16.5394C107.121 16.3075 107.017 16.1244 106.809 15.9901L103.086 13.4817C102.392 13.0178 101.886 12.5906 101.567 12.2C101.262 11.7972 101.11 11.3639 101.11 10.9V9.65493C101.11 8.88592 101.394 8.25117 101.963 7.7507C102.545 7.25023 103.287 7 104.188 7H106.955C107.828 7 108.556 7.25023 109.139 7.7507C109.735 8.25117 110.033 8.88592 110.033 9.65493V10.607H107.059V9.92958C107.059 9.81972 107.017 9.73427 106.934 9.67324C106.864 9.6 106.774 9.56338 106.663 9.56338H104.542C104.195 9.56338 104.022 9.71596 104.022 10.0211V10.4239C104.022 10.6559 104.126 10.839 104.334 10.9732L108.015 13.4451C108.709 13.9089 109.215 14.3362 109.534 14.7268C109.867 15.1052 110.033 15.5141 110.033 15.9535V17.3451C110.033 18.1141 109.742 18.7488 109.159 19.2493C108.591 19.7498 107.856 20 106.955 20H104.126Z"/>
<path d="M118.16 19.9085V7.09155H124.026C124.594 7.09155 125.107 7.20751 125.565 7.43944C126.036 7.65915 126.404 7.97653 126.667 8.39155C126.945 8.79437 127.083 9.24601 127.083 9.74648V11.3577C127.083 11.7972 126.965 12.2 126.73 12.5662C126.508 12.9324 126.203 13.2131 125.814 13.4085V13.5915C126.203 13.7869 126.508 14.0676 126.73 14.4338C126.965 14.8 127.083 15.2028 127.083 15.6423V17.2535C127.083 18.0225 126.785 18.6573 126.189 19.1577C125.606 19.6582 124.878 19.9085 124.005 19.9085H118.16ZM123.776 12.2183C123.887 12.2183 123.977 12.1878 124.046 12.1268C124.13 12.0657 124.171 11.9803 124.171 11.8704V10.0028C124.171 9.89296 124.13 9.80751 124.046 9.74648C123.977 9.68545 123.887 9.65493 123.776 9.65493H121.072V12.2183H123.776ZM123.776 17.3451C123.887 17.3451 123.977 17.3146 124.046 17.2535C124.13 17.1925 124.171 17.107 124.171 16.9972V15.1296C124.171 15.0197 124.13 14.9343 124.046 14.8732C123.977 14.8122 123.887 14.7817 123.776 14.7817H121.072V17.3451H123.776Z"/>
<path d="M132.425 20C131.552 20 130.824 19.7498 130.241 19.2493C129.659 18.7488 129.368 18.1141 129.368 17.3451V9.65493C129.368 8.88592 129.659 8.25117 130.241 7.7507C130.824 7.25023 131.552 7 132.425 7H135.275C136.148 7 136.876 7.25023 137.459 7.7507C138.041 8.25117 138.332 8.88592 138.332 9.65493V17.3451C138.332 18.1141 138.041 18.7488 137.459 19.2493C136.876 19.7498 136.148 20 135.275 20H132.425ZM134.963 17.4366C135.226 17.4366 135.358 17.3207 135.358 17.0887V9.91127C135.358 9.67934 135.226 9.56338 134.963 9.56338H132.737C132.626 9.56338 132.536 9.5939 132.467 9.65493C132.397 9.71596 132.363 9.80141 132.363 9.91127V17.0887C132.363 17.1986 132.397 17.284 132.467 17.3451C132.536 17.4061 132.626 17.4366 132.737 17.4366H134.963Z"/>
<path d="M142.939 19.9085H139.653L142.835 13.5L139.653 7.09155H142.918L144.77 10.9366H144.936L146.787 7.09155H150.094L146.912 13.5L150.094 19.9085H146.808L144.978 16.0634H144.811L142.939 19.9085Z"/>
<path d="M155.099 19.9085H152.021V7.09155H155.099V19.9085Z"/>
<path d="M160.68 19.9085H157.81V7.09155H160.826L163.758 13.8845H163.925V7.09155H166.795V19.9085H163.779L160.846 13.1521H160.68V19.9085Z"/>
<path d="M178.267 10.6254H175.292V9.92958C175.292 9.81972 175.251 9.73427 175.168 9.67324C175.098 9.6 175.001 9.56338 174.876 9.56338H172.672C172.547 9.56338 172.45 9.6 172.38 9.67324C172.311 9.73427 172.276 9.81972 172.276 9.92958V17.0887C172.276 17.3207 172.408 17.4366 172.672 17.4366H174.876C175.001 17.4366 175.098 17.4061 175.168 17.3451C175.251 17.284 175.292 17.1986 175.292 17.0887V14.7817H178.267V19.9085H175.334V19.3042C174.904 19.7681 174.37 20 173.732 20H172.36C171.486 20 170.751 19.7498 170.155 19.2493C169.572 18.7488 169.281 18.1141 169.281 17.3451V9.67324C169.281 9.17277 169.413 8.72113 169.676 8.31831C169.954 7.90329 170.328 7.57981 170.8 7.34789C171.271 7.11596 171.791 7 172.36 7H175.209C176.097 7 176.825 7.25634 177.393 7.76901C177.976 8.26948 178.267 8.90423 178.267 9.67324V10.6254Z"/>
</mask>
<path d="M33.0576 20C32.184 20 31.456 19.7498 30.8736 19.2493C30.2912 18.7488 30 18.1141 30 17.3451V9.65493C30 8.88592 30.2912 8.25117 30.8736 7.7507C31.456 7.25023 32.184 7 33.0576 7H35.9071C36.7807 7 37.5087 7.25023 38.0911 7.7507C38.6735 8.25117 38.9647 8.88592 38.9647 9.65493V17.3451C38.9647 18.1141 38.6735 18.7488 38.0911 19.2493C37.5087 19.7498 36.7807 20 35.9071 20H33.0576ZM35.5951 17.4366C35.8586 17.4366 35.9903 17.3207 35.9903 17.0887V9.91127C35.9903 9.67934 35.8586 9.56338 35.5951 9.56338H33.3696C33.2586 9.56338 33.1685 9.5939 33.0992 9.65493C33.0298 9.71596 32.9952 9.80141 32.9952 9.91127V17.0887C32.9952 17.1986 33.0298 17.284 33.0992 17.3451C33.1685 17.4061 33.2586 17.4366 33.3696 17.4366H35.5951Z" fill="#669EF3"/>
<path d="M44.5394 7.09155V17.3451H50.3841V19.9085H41.461V7.09155H44.5394Z" fill="#669EF3"/>
<path d="M57.1299 7.09155H60.3538L56.1107 15.4958L56.0691 19.9085H52.9907L52.9491 15.4958L48.706 7.09155H51.9299L54.4259 12.0535H54.6339L57.1299 7.09155Z" fill="#669EF3"/>
<path d="M68.8931 16.6493L72.7619 7.09155H76.0898V19.9085H73.2195V13.4268H73.0531L70.4531 19.9085H67.1459L64.546 13.4268H64.3796V19.9085H61.5092V7.09155H64.8372L68.7059 16.6493H68.8931Z" fill="#669EF3"/>
<path d="M78.7949 19.9085V7.09155H84.7229C85.5965 7.09155 86.3245 7.34178 86.9069 7.84225C87.5031 8.34272 87.8013 8.97747 87.8013 9.74648V12.1268C87.8013 12.8958 87.5031 13.5305 86.9069 14.031C86.3245 14.5315 85.5965 14.7817 84.7229 14.7817H81.8733V19.9085H78.7949ZM84.4941 12.2183C84.605 12.2183 84.6951 12.1878 84.7645 12.1268C84.8477 12.0657 84.8893 11.9803 84.8893 11.8704V10.0028C84.8893 9.89296 84.8477 9.80751 84.7645 9.74648C84.6951 9.68545 84.605 9.65493 84.4941 9.65493H81.7693V12.2183H84.4941Z" fill="#669EF3"/>
<path d="M92.8623 20C91.9748 20 91.2399 19.7498 90.6575 19.2493C90.0751 18.7488 89.7839 18.1141 89.7839 17.3451V7.09155H92.7791V17.0887C92.7791 17.3207 92.9039 17.4366 93.1534 17.4366H95.3582C95.483 17.4366 95.5801 17.4061 95.6494 17.3451C95.7326 17.284 95.7742 17.1986 95.7742 17.0887V7.09155H98.7694V17.3451C98.7694 18.1141 98.4782 18.7488 97.8958 19.2493C97.3273 19.7498 96.6062 20 95.7326 20H92.8623Z" fill="#669EF3"/>
<path d="M104.126 20C103.557 20 103.037 19.884 102.566 19.6521C102.094 19.4202 101.72 19.1028 101.443 18.7C101.179 18.2972 101.047 17.8455 101.047 17.3451V16.3746H104.022V17.0704C104.022 17.1803 104.056 17.2718 104.126 17.3451C104.209 17.4061 104.306 17.4366 104.417 17.4366H106.601C106.948 17.4366 107.121 17.284 107.121 16.9789V16.5394C107.121 16.3075 107.017 16.1244 106.809 15.9901L103.086 13.4817C102.392 13.0178 101.886 12.5906 101.567 12.2C101.262 11.7972 101.11 11.3639 101.11 10.9V9.65493C101.11 8.88592 101.394 8.25117 101.963 7.7507C102.545 7.25023 103.287 7 104.188 7H106.955C107.828 7 108.556 7.25023 109.139 7.7507C109.735 8.25117 110.033 8.88592 110.033 9.65493V10.607H107.059V9.92958C107.059 9.81972 107.017 9.73427 106.934 9.67324C106.864 9.6 106.774 9.56338 106.663 9.56338H104.542C104.195 9.56338 104.022 9.71596 104.022 10.0211V10.4239C104.022 10.6559 104.126 10.839 104.334 10.9732L108.015 13.4451C108.709 13.9089 109.215 14.3362 109.534 14.7268C109.867 15.1052 110.033 15.5141 110.033 15.9535V17.3451C110.033 18.1141 109.742 18.7488 109.159 19.2493C108.591 19.7498 107.856 20 106.955 20H104.126Z" fill="#669EF3"/>
<path d="M118.16 19.9085V7.09155H124.026C124.594 7.09155 125.107 7.20751 125.565 7.43944C126.036 7.65915 126.404 7.97653 126.667 8.39155C126.945 8.79437 127.083 9.24601 127.083 9.74648V11.3577C127.083 11.7972 126.965 12.2 126.73 12.5662C126.508 12.9324 126.203 13.2131 125.814 13.4085V13.5915C126.203 13.7869 126.508 14.0676 126.73 14.4338C126.965 14.8 127.083 15.2028 127.083 15.6423V17.2535C127.083 18.0225 126.785 18.6573 126.189 19.1577C125.606 19.6582 124.878 19.9085 124.005 19.9085H118.16ZM123.776 12.2183C123.887 12.2183 123.977 12.1878 124.046 12.1268C124.13 12.0657 124.171 11.9803 124.171 11.8704V10.0028C124.171 9.89296 124.13 9.80751 124.046 9.74648C123.977 9.68545 123.887 9.65493 123.776 9.65493H121.072V12.2183H123.776ZM123.776 17.3451C123.887 17.3451 123.977 17.3146 124.046 17.2535C124.13 17.1925 124.171 17.107 124.171 16.9972V15.1296C124.171 15.0197 124.13 14.9343 124.046 14.8732C123.977 14.8122 123.887 14.7817 123.776 14.7817H121.072V17.3451H123.776Z" fill="#669EF3"/>
<path d="M132.425 20C131.552 20 130.824 19.7498 130.241 19.2493C129.659 18.7488 129.368 18.1141 129.368 17.3451V9.65493C129.368 8.88592 129.659 8.25117 130.241 7.7507C130.824 7.25023 131.552 7 132.425 7H135.275C136.148 7 136.876 7.25023 137.459 7.7507C138.041 8.25117 138.332 8.88592 138.332 9.65493V17.3451C138.332 18.1141 138.041 18.7488 137.459 19.2493C136.876 19.7498 136.148 20 135.275 20H132.425ZM134.963 17.4366C135.226 17.4366 135.358 17.3207 135.358 17.0887V9.91127C135.358 9.67934 135.226 9.56338 134.963 9.56338H132.737C132.626 9.56338 132.536 9.5939 132.467 9.65493C132.397 9.71596 132.363 9.80141 132.363 9.91127V17.0887C132.363 17.1986 132.397 17.284 132.467 17.3451C132.536 17.4061 132.626 17.4366 132.737 17.4366H134.963Z" fill="#669EF3"/>
<path d="M142.939 19.9085H139.653L142.835 13.5L139.653 7.09155H142.918L144.77 10.9366H144.936L146.787 7.09155H150.094L146.912 13.5L150.094 19.9085H146.808L144.978 16.0634H144.811L142.939 19.9085Z" fill="#669EF3"/>
<path d="M155.099 19.9085H152.021V7.09155H155.099V19.9085Z" fill="#669EF3"/>
<path d="M160.68 19.9085H157.81V7.09155H160.826L163.758 13.8845H163.925V7.09155H166.795V19.9085H163.779L160.846 13.1521H160.68V19.9085Z" fill="#669EF3"/>
<path d="M178.267 10.6254H175.292V9.92958C175.292 9.81972 175.251 9.73427 175.168 9.67324C175.098 9.6 175.001 9.56338 174.876 9.56338H172.672C172.547 9.56338 172.45 9.6 172.38 9.67324C172.311 9.73427 172.276 9.81972 172.276 9.92958V17.0887C172.276 17.3207 172.408 17.4366 172.672 17.4366H174.876C175.001 17.4366 175.098 17.4061 175.168 17.3451C175.251 17.284 175.292 17.1986 175.292 17.0887V14.7817H178.267V19.9085H175.334V19.3042C174.904 19.7681 174.37 20 173.732 20H172.36C171.486 20 170.751 19.7498 170.155 19.2493C169.572 18.7488 169.281 18.1141 169.281 17.3451V9.67324C169.281 9.17277 169.413 8.72113 169.676 8.31831C169.954 7.90329 170.328 7.57981 170.8 7.34789C171.271 7.11596 171.791 7 172.36 7H175.209C176.097 7 176.825 7.25634 177.393 7.76901C177.976 8.26948 178.267 8.90423 178.267 9.67324V10.6254Z" fill="#669EF3"/>
<path d="M33.0576 20C32.184 20 31.456 19.7498 30.8736 19.2493C30.2912 18.7488 30 18.1141 30 17.3451V9.65493C30 8.88592 30.2912 8.25117 30.8736 7.7507C31.456 7.25023 32.184 7 33.0576 7H35.9071C36.7807 7 37.5087 7.25023 38.0911 7.7507C38.6735 8.25117 38.9647 8.88592 38.9647 9.65493V17.3451C38.9647 18.1141 38.6735 18.7488 38.0911 19.2493C37.5087 19.7498 36.7807 20 35.9071 20H33.0576ZM35.5951 17.4366C35.8586 17.4366 35.9903 17.3207 35.9903 17.0887V9.91127C35.9903 9.67934 35.8586 9.56338 35.5951 9.56338H33.3696C33.2586 9.56338 33.1685 9.5939 33.0992 9.65493C33.0298 9.71596 32.9952 9.80141 32.9952 9.91127V17.0887C32.9952 17.1986 33.0298 17.284 33.0992 17.3451C33.1685 17.4061 33.2586 17.4366 33.3696 17.4366H35.5951Z" stroke="#07194E" stroke-width="4" mask="url(#path-1-outside-1_31_27)"/>
<path d="M44.5394 7.09155V17.3451H50.3841V19.9085H41.461V7.09155H44.5394Z" stroke="#07194E" stroke-width="4" mask="url(#path-1-outside-1_31_27)"/>
<path d="M57.1299 7.09155H60.3538L56.1107 15.4958L56.0691 19.9085H52.9907L52.9491 15.4958L48.706 7.09155H51.9299L54.4259 12.0535H54.6339L57.1299 7.09155Z" stroke="#07194E" stroke-width="4" mask="url(#path-1-outside-1_31_27)"/>
<path d="M68.8931 16.6493L72.7619 7.09155H76.0898V19.9085H73.2195V13.4268H73.0531L70.4531 19.9085H67.1459L64.546 13.4268H64.3796V19.9085H61.5092V7.09155H64.8372L68.7059 16.6493H68.8931Z" stroke="#07194E" stroke-width="4" mask="url(#path-1-outside-1_31_27)"/>
<path d="M78.7949 19.9085V7.09155H84.7229C85.5965 7.09155 86.3245 7.34178 86.9069 7.84225C87.5031 8.34272 87.8013 8.97747 87.8013 9.74648V12.1268C87.8013 12.8958 87.5031 13.5305 86.9069 14.031C86.3245 14.5315 85.5965 14.7817 84.7229 14.7817H81.8733V19.9085H78.7949ZM84.4941 12.2183C84.605 12.2183 84.6951 12.1878 84.7645 12.1268C84.8477 12.0657 84.8893 11.9803 84.8893 11.8704V10.0028C84.8893 9.89296 84.8477 9.80751 84.7645 9.74648C84.6951 9.68545 84.605 9.65493 84.4941 9.65493H81.7693V12.2183H84.4941Z" stroke="#07194E" stroke-width="4" mask="url(#path-1-outside-1_31_27)"/>
<path d="M92.8623 20C91.9748 20 91.2399 19.7498 90.6575 19.2493C90.0751 18.7488 89.7839 18.1141 89.7839 17.3451V7.09155H92.7791V17.0887C92.7791 17.3207 92.9039 17.4366 93.1534 17.4366H95.3582C95.483 17.4366 95.5801 17.4061 95.6494 17.3451C95.7326 17.284 95.7742 17.1986 95.7742 17.0887V7.09155H98.7694V17.3451C98.7694 18.1141 98.4782 18.7488 97.8958 19.2493C97.3273 19.7498 96.6062 20 95.7326 20H92.8623Z" stroke="#07194E" stroke-width="4" mask="url(#path-1-outside-1_31_27)"/>
<path d="M104.126 20C103.557 20 103.037 19.884 102.566 19.6521C102.094 19.4202 101.72 19.1028 101.443 18.7C101.179 18.2972 101.047 17.8455 101.047 17.3451V16.3746H104.022V17.0704C104.022 17.1803 104.056 17.2718 104.126 17.3451C104.209 17.4061 104.306 17.4366 104.417 17.4366H106.601C106.948 17.4366 107.121 17.284 107.121 16.9789V16.5394C107.121 16.3075 107.017 16.1244 106.809 15.9901L103.086 13.4817C102.392 13.0178 101.886 12.5906 101.567 12.2C101.262 11.7972 101.11 11.3639 101.11 10.9V9.65493C101.11 8.88592 101.394 8.25117 101.963 7.7507C102.545 7.25023 103.287 7 104.188 7H106.955C107.828 7 108.556 7.25023 109.139 7.7507C109.735 8.25117 110.033 8.88592 110.033 9.65493V10.607H107.059V9.92958C107.059 9.81972 107.017 9.73427 106.934 9.67324C106.864 9.6 106.774 9.56338 106.663 9.56338H104.542C104.195 9.56338 104.022 9.71596 104.022 10.0211V10.4239C104.022 10.6559 104.126 10.839 104.334 10.9732L108.015 13.4451C108.709 13.9089 109.215 14.3362 109.534 14.7268C109.867 15.1052 110.033 15.5141 110.033 15.9535V17.3451C110.033 18.1141 109.742 18.7488 109.159 19.2493C108.591 19.7498 107.856 20 106.955 20H104.126Z" stroke="#07194E" stroke-width="4" mask="url(#path-1-outside-1_31_27)"/>
<path d="M118.16 19.9085V7.09155H124.026C124.594 7.09155 125.107 7.20751 125.565 7.43944C126.036 7.65915 126.404 7.97653 126.667 8.39155C126.945 8.79437 127.083 9.24601 127.083 9.74648V11.3577C127.083 11.7972 126.965 12.2 126.73 12.5662C126.508 12.9324 126.203 13.2131 125.814 13.4085V13.5915C126.203 13.7869 126.508 14.0676 126.73 14.4338C126.965 14.8 127.083 15.2028 127.083 15.6423V17.2535C127.083 18.0225 126.785 18.6573 126.189 19.1577C125.606 19.6582 124.878 19.9085 124.005 19.9085H118.16ZM123.776 12.2183C123.887 12.2183 123.977 12.1878 124.046 12.1268C124.13 12.0657 124.171 11.9803 124.171 11.8704V10.0028C124.171 9.89296 124.13 9.80751 124.046 9.74648C123.977 9.68545 123.887 9.65493 123.776 9.65493H121.072V12.2183H123.776ZM123.776 17.3451C123.887 17.3451 123.977 17.3146 124.046 17.2535C124.13 17.1925 124.171 17.107 124.171 16.9972V15.1296C124.171 15.0197 124.13 14.9343 124.046 14.8732C123.977 14.8122 123.887 14.7817 123.776 14.7817H121.072V17.3451H123.776Z" stroke="#07194E" stroke-width="4" mask="url(#path-1-outside-1_31_27)"/>
<path d="M132.425 20C131.552 20 130.824 19.7498 130.241 19.2493C129.659 18.7488 129.368 18.1141 129.368 17.3451V9.65493C129.368 8.88592 129.659 8.25117 130.241 7.7507C130.824 7.25023 131.552 7 132.425 7H135.275C136.148 7 136.876 7.25023 137.459 7.7507C138.041 8.25117 138.332 8.88592 138.332 9.65493V17.3451C138.332 18.1141 138.041 18.7488 137.459 19.2493C136.876 19.7498 136.148 20 135.275 20H132.425ZM134.963 17.4366C135.226 17.4366 135.358 17.3207 135.358 17.0887V9.91127C135.358 9.67934 135.226 9.56338 134.963 9.56338H132.737C132.626 9.56338 132.536 9.5939 132.467 9.65493C132.397 9.71596 132.363 9.80141 132.363 9.91127V17.0887C132.363 17.1986 132.397 17.284 132.467 17.3451C132.536 17.4061 132.626 17.4366 132.737 17.4366H134.963Z" stroke="#07194E" stroke-width="4" mask="url(#path-1-outside-1_31_27)"/>
<path d="M142.939 19.9085H139.653L142.835 13.5L139.653 7.09155H142.918L144.77 10.9366H144.936L146.787 7.09155H150.094L146.912 13.5L150.094 19.9085H146.808L144.978 16.0634H144.811L142.939 19.9085Z" stroke="#07194E" stroke-width="4" mask="url(#path-1-outside-1_31_27)"/>
<path d="M155.099 19.9085H152.021V7.09155H155.099V19.9085Z" stroke="#07194E" stroke-width="4" mask="url(#path-1-outside-1_31_27)"/>
<path d="M160.68 19.9085H157.81V7.09155H160.826L163.758 13.8845H163.925V7.09155H166.795V19.9085H163.779L160.846 13.1521H160.68V19.9085Z" stroke="#07194E" stroke-width="4" mask="url(#path-1-outside-1_31_27)"/>
<path d="M178.267 10.6254H175.292V9.92958C175.292 9.81972 175.251 9.73427 175.168 9.67324C175.098 9.6 175.001 9.56338 174.876 9.56338H172.672C172.547 9.56338 172.45 9.6 172.38 9.67324C172.311 9.73427 172.276 9.81972 172.276 9.92958V17.0887C172.276 17.3207 172.408 17.4366 172.672 17.4366H174.876C175.001 17.4366 175.098 17.4061 175.168 17.3451C175.251 17.284 175.292 17.1986 175.292 17.0887V14.7817H178.267V19.9085H175.334V19.3042C174.904 19.7681 174.37 20 173.732 20H172.36C171.486 20 170.751 19.7498 170.155 19.2493C169.572 18.7488 169.281 18.1141 169.281 17.3451V9.67324C169.281 9.17277 169.413 8.72113 169.676 8.31831C169.954 7.90329 170.328 7.57981 170.8 7.34789C171.271 7.11596 171.791 7 172.36 7H175.209C176.097 7 176.825 7.25634 177.393 7.76901C177.976 8.26948 178.267 8.90423 178.267 9.67324V10.6254Z" stroke="#07194E" stroke-width="4" mask="url(#path-1-outside-1_31_27)"/>
<path d="M16.132 23.4929L7.22014 20.8216L1.4724 22.5153L1.56038 5.29029L7.28977 7.18889L13.678 1.57152L19.0982 3.25989L19.9796 5.97676L23.7311 7.26858L25.2477 14.0178L23.6615 20.9013L16.132 23.4929Z" fill="#669EF3"/>
<path fill-rule="evenodd" clip-rule="evenodd" d="M1.00453 23.1269L1.11332 4.65833L7.22329 6.67017L13.6419 1.05257L19.5731 2.8881L20.4592 5.61264L24.2531 6.91085L25.8493 14.0036L24.1707 21.2308L16.214 23.9607L7.25049 21.2917L1.00453 23.1269ZM7.72153 20.4832L16.1944 23.0062L23.3721 20.5436L24.8915 14.0017L23.4504 7.59799L16.2079 5.23693L7.79785 7.52651L7.72153 20.4832ZM9.14794 6.20619L13.8685 2.07473L18.8267 3.60916L19.3555 5.23498L16.33 4.1997L9.14794 6.20619ZM6.86287 7.50934L2.04096 5.92162L1.94683 21.9031L6.78646 20.4811L6.86287 7.50934Z" fill="#07194E" stroke="#07194E"/>
</svg>
