<svg width="23" height="24" viewBox="0 0 23 24" fill="none" xmlns="http://www.w3.org/2000/svg">
<path fill-rule="evenodd" clip-rule="evenodd" d="M0.186968 0.725653C0.0134561 1.19897 -0.0508306 6.57743 0.0434149 12.677L0.215054 23.7667H8.01684H15.8186L16.0071 20.3344C16.1769 17.2448 16.0683 16.9022 14.9149 16.9022C13.8669 16.9022 13.6341 17.3187 13.6341 19.1904V21.4785H8.01684H2.39955V11.999V2.51956H8.01684H13.6341V4.80771C13.6341 6.67942 13.8669 7.09586 14.9149 7.09586C16.0683 7.09586 16.1769 6.75329 16.0071 3.66364L15.8186 0.231413L8.16039 0.0477069C2.27348 -0.0935047 0.429759 0.063397 0.186968 0.725653ZM18.0031 8.73025C18.0031 9.50822 17.1019 9.71089 13.6341 9.71089H9.26512V11.999V14.2872H13.6341C17.1019 14.2872 18.0031 14.4899 18.0031 15.2678C18.0031 16.7721 18.8182 16.4524 21.0034 14.0904L23 11.9324L20.9403 9.84099C18.6535 7.52015 18.0031 7.27368 18.0031 8.73025Z" fill="black"/>
</svg>
