<svg width="18" height="15" viewBox="0 0 18 15" fill="none" xmlns="http://www.w3.org/2000/svg">
<path fill-rule="evenodd" clip-rule="evenodd" d="M5.6774 0.332704C5.63607 0.450466 4.61177 3.37712 3.40115 6.83638L1.20006 13.1259L0.600032 13.1409L0 13.1559V13.6896V14.2233H3.22775H6.4555V13.6895V13.1557L5.82884 13.1408L5.20224 13.1259L5.82583 11.1454C6.16882 10.0561 6.45611 9.14842 6.46426 9.12829C6.47241 9.10816 7.06175 10.2343 7.77397 11.6307C8.48615 13.0272 9.07987 14.1688 9.09334 14.1676C9.10677 14.1665 9.66911 13.0346 10.3429 11.6524C11.0168 10.2701 11.5796 9.13894 11.5937 9.13862C11.6124 9.13825 12.5 11.9188 12.8537 13.0858C12.8692 13.1372 12.7251 13.1527 12.2328 13.1527H11.5916V13.688V14.2233H14.7958H18V13.688V13.1527L17.4463 13.152L16.8927 13.1512L14.6753 6.66182C13.2262 2.421 12.4336 0.167088 12.3879 0.157078C12.3382 0.146212 11.8546 1.17299 10.7243 3.68978C9.84793 5.6412 9.11733 7.2539 9.10079 7.27349C9.0842 7.29308 8.45576 5.972 7.70419 4.33784C6.95262 2.70363 6.20604 1.08574 6.04513 0.742569L5.75256 0.118591L5.6774 0.332704Z" fill="#2F8642"/>
</svg>
