<svg width="18" height="15" viewBox="0 0 18 15" fill="none" xmlns="http://www.w3.org/2000/svg">
<path fill-rule="evenodd" clip-rule="evenodd" d="M5.6774 0.970277C5.63607 1.08804 4.61177 4.01469 3.40115 7.47395L1.20006 13.7635L0.600032 13.7785L0 13.7935V14.3272V14.8608H3.22775H6.4555V14.3271V13.7933L5.82884 13.7784L5.20224 13.7635L5.82583 11.783C6.16882 10.6937 6.45611 9.78599 6.46426 9.76586C6.47241 9.74574 7.06175 10.8719 7.77397 12.2683C8.48615 13.6648 9.07987 14.8063 9.09334 14.8052C9.10677 14.804 9.66911 13.6722 10.3429 12.2899C11.0168 10.9077 11.5796 9.77652 11.5937 9.7762C11.6124 9.77582 12.5 12.5563 12.8537 13.7234C12.8692 13.7748 12.7251 13.7903 12.2328 13.7903H11.5916V14.3256V14.8608H14.7958H18V14.3256V13.7903L17.4463 13.7895L16.8927 13.7888L14.6753 7.29939C13.2262 3.05857 12.4336 0.804661 12.3879 0.794651C12.3382 0.783785 11.8546 1.81056 10.7243 4.32735C9.84793 6.27877 9.11733 7.89147 9.10079 7.91106C9.0842 7.93065 8.45576 6.60958 7.70419 4.97542C6.95262 3.3412 6.20604 1.72331 6.04513 1.38014L5.75256 0.756165L5.6774 0.970277Z" fill="#D91509"/>
</svg>
