<svg width="18" height="14" viewBox="0 0 18 14" fill="none" xmlns="http://www.w3.org/2000/svg">
<path fill-rule="evenodd" clip-rule="evenodd" d="M5.6774 0.655174C5.63607 0.766703 4.61177 3.53847 3.40115 6.81465L1.20006 12.7713L0.600032 12.7855L0 12.7997V13.3052V13.8106H3.22775H6.4555V13.3051V12.7995L5.82884 12.7854L5.20224 12.7713L5.82583 10.8956C6.16882 9.86397 6.45611 9.00433 6.46426 8.98526C6.47241 8.9662 7.06175 10.0327 7.77397 11.3553C8.48615 12.6778 9.07987 13.759 9.09334 13.7579C9.10677 13.7568 9.66911 12.6849 10.3429 11.3758C11.0168 10.0666 11.5796 8.99535 11.5937 8.99505C11.6124 8.9947 12.5 11.6281 12.8537 12.7333C12.8692 12.782 12.7251 12.7967 12.2328 12.7967H11.5916V13.3036V13.8106H14.7958H18V13.3036V12.7967L17.4463 12.796L16.8927 12.7953L14.6753 6.64933C13.2262 2.63295 12.4336 0.498322 12.3879 0.488842C12.3382 0.478551 11.8546 1.45099 10.7243 3.83458C9.84793 5.68272 9.11733 7.21007 9.10079 7.22862C9.0842 7.24718 8.45576 5.99602 7.70419 4.44834C6.95262 2.90062 6.20604 1.36835 6.04513 1.04335L5.75256 0.452393L5.6774 0.655174Z" fill="#FF8A00"/>
</svg>
