<svg width="18" height="15" viewBox="0 0 18 15" fill="none" xmlns="http://www.w3.org/2000/svg">
<path fill-rule="evenodd" clip-rule="evenodd" d="M5.6774 0.917075C5.63607 1.02861 4.61177 3.80037 3.40115 7.07655L1.20006 13.0332L0.600032 13.0474L0 13.0616V13.5671V14.0725H3.22775H6.4555V13.567V13.0614L5.82884 13.0473L5.20224 13.0332L5.82583 11.1575C6.16882 10.1259 6.45611 9.26623 6.46426 9.24717C6.47241 9.22811 7.06175 10.2946 7.77397 11.6172C8.48615 12.9397 9.07987 14.0209 9.09334 14.0198C9.10677 14.0187 9.66911 12.9468 10.3429 11.6377C11.0168 10.3286 11.5796 9.25726 11.5937 9.25695C11.6124 9.2566 12.5 11.89 12.8537 12.9952C12.8692 13.0439 12.7251 13.0586 12.2328 13.0586H11.5916V13.5655V14.0725H14.7958H18V13.5655V13.0586L17.4463 13.0579L16.8927 13.0572L14.6753 6.91123C13.2262 2.89485 12.4336 0.760224 12.3879 0.750744C12.3382 0.740453 11.8546 1.71289 10.7243 4.09648C9.84793 5.94463 9.11733 7.47197 9.10079 7.49053C9.0842 7.50908 8.45576 6.25792 7.70419 4.71025C6.95262 3.16252 6.20604 1.63026 6.04513 1.30525L5.75256 0.714294L5.6774 0.917075Z" fill="#8F489C"/>
</svg>
