<svg width="18" height="15" viewBox="0 0 18 15" fill="none" xmlns="http://www.w3.org/2000/svg">
<path fill-rule="evenodd" clip-rule="evenodd" d="M5.6774 1.07583C5.63607 1.18736 4.61177 3.95912 3.40115 7.2353L1.20006 13.192L0.600032 13.2062L0 13.2204V13.7258V14.2312H3.22775H6.4555V13.7257V13.2202L5.82884 13.2061L5.20224 13.192L5.82583 11.3163C6.16882 10.2846 6.45611 9.42498 6.46426 9.40592C6.47241 9.38686 7.06175 10.4534 7.77397 11.7759C8.48615 13.0985 9.07987 14.1796 9.09334 14.1786C9.10677 14.1775 9.66911 13.1055 10.3429 11.7964C11.0168 10.4873 11.5796 9.41601 11.5937 9.4157C11.6124 9.41535 12.5 12.0487 12.8537 13.154C12.8692 13.2026 12.7251 13.2173 12.2328 13.2173H11.5916V13.7243V14.2312H14.7958H18V13.7243V13.2173L17.4463 13.2166L16.8927 13.2159L14.6753 7.06998C13.2262 3.0536 12.4336 0.918976 12.3879 0.909496C12.3382 0.899205 11.8546 1.87164 10.7243 4.25523C9.84793 6.10338 9.11733 7.63072 9.10079 7.64928C9.0842 7.66783 8.45576 6.41667 7.70419 4.869C6.95262 3.32127 6.20604 1.78901 6.04513 1.464L5.75256 0.873047L5.6774 1.07583Z" fill="#0078BF"/>
</svg>
