<svg width="18" height="15" viewBox="0 0 18 15" fill="none" xmlns="http://www.w3.org/2000/svg">
<path fill-rule="evenodd" clip-rule="evenodd" d="M5.6774 0.988487C5.63607 1.10002 4.61177 3.87178 3.40115 7.14796L1.20006 13.1047L0.600032 13.1188L0 13.133V13.6385V14.1439H3.22775H6.4555V13.6384V13.1328L5.82884 13.1187L5.20224 13.1047L5.82583 11.2289C6.16882 10.1973 6.45611 9.33764 6.46426 9.31858C6.47241 9.29952 7.06175 10.366 7.77397 11.6886C8.48615 13.0111 9.07987 14.0923 9.09334 14.0912C9.10677 14.0901 9.66911 13.0182 10.3429 11.7091C11.0168 10.4 11.5796 9.32867 11.5937 9.32836C11.6124 9.32801 12.5 11.9614 12.8537 13.0666C12.8692 13.1153 12.7251 13.13 12.2328 13.13H11.5916V13.637V14.1439H14.7958H18V13.637V13.13L17.4463 13.1293L16.8927 13.1286L14.6753 6.98264C13.2262 2.96626 12.4336 0.831635 12.3879 0.822155C12.3382 0.811864 11.8546 1.7843 10.7243 4.16789C9.84793 6.01604 9.11733 7.54338 9.10079 7.56194C9.0842 7.58049 8.45576 6.32933 7.70419 4.78166C6.95262 3.23393 6.20604 1.70167 6.04513 1.37666L5.75256 0.785706L5.6774 0.988487Z" fill="#A6A6A6"/>
</svg>
